{"title":"Dicte.S03E02.DANISH.720p50.HDTV-z97","uid":15704177,"size":999231755,"categoryP":"video","categoryS":"tv_shows","magnet":"?xt=urn:btih:b0c5de1bf28703f980dda093c396738dce2f7f65&amp;dn=Dicte.S03E02.DANISH.720p50.HDTV-z97&amp;tr=udp%3A%2F%2Ftracker.leechers-paradise.org%3A6969&amp;tr=udp%3A%2F%2Fzer0day.ch%3A1337&amp;tr=udp%3A%2F%2Fopen.demonii.com%3A1337&amp;tr=udp%3A%2F%2Ftracker.coppersurfer.tk%3A6969&amp;tr=udp%3A%2F%2Fexodus.desync.com%3A6969","seeders":16,"leechers":3,"uploader":"48848448","files":2,"time":1472511320,"description":"______ _____  ______\r\n                       |___  /|  _  ||___  /\r\n                          / / | |_| |   / / \r\n                         / /  ____ |  / /  \r\n                       ./ /___.___/ /./ /   \r\n                       _____/____/ _/   \r\n\r\n\r\n                         RELEASE NOTES                         \r\n▄▄▄▄▄▄▄▄▄▄▄▄▄▄▄▄▄▄▄▄▄▄▄▄▄▄▄▄▄▄▄▄▄▄▄▄▄▄▄▄▄▄▄▄▄▄▄▄▄▄▄▄▄▄▄▄▄▄▄▄▄▄▄▄▄\r\n\r\n                 Dicte - Season 3 Episode 2\r\n            \r\niMDB url                       : www.imdb.com/title/tt2025899/\r\niMDB Rating                    : 7.2/10 from 1074 users\r\nRelease                        : 2016 - August 29th\r\nGenre                          : Krimi, Drama, Familie\r\nSource                         : DVB-C / 720p / 50 FPS\r\nSubs                           : Hardcoded where needed\r\n\r\n                         PLOT SUMMARY                     \r\n▄▄▄▄▄▄▄▄▄▄▄▄▄▄▄▄▄▄▄▄▄▄▄▄▄▄▄▄▄▄▄▄▄▄▄▄▄▄▄▄▄▄▄▄▄▄▄▄▄▄▄▄▄▄▄▄▄▄▄▄▄▄▄▄▄▄\r\n\r\nBos lig bliver fragtet hjem til Danmark, og Dicte skal identificere\r\nham. Men der venter Dicte noget af en overraskelse, og forhand-\r\nlingerne med gidseltagerne fortsaetter. Wagner kommer med en uventet\r\nhaandsraekning, der giver hende nyt haab. Men Dicte har stadig brug\r\nfor penge, og sidste udvej er, at hun tager kontakt til sin bio-\r\nlogiske og stenrige far. Wagner og Dicte foeres helt ind i gidsel-\r\ntagernes miljoe, men er de godt nok forberedt paa, hvad der venter\r\ndem?\r\n\r\n Iben Hjejle, Laerke Winther Andersen, Dar Salim\r\n\r\n                      RELEASE INFORMATION                 \r\n▄▄▄▄▄▄▄▄▄▄▄▄▄▄▄▄▄▄▄▄▄▄▄▄▄▄▄▄▄▄▄▄▄▄▄▄▄▄▄▄▄▄▄▄▄▄▄▄▄▄▄▄▄▄▄▄▄▄▄▄▄▄▄▄▄▄\r\n\r\nVideo\r\nID                             : 1\r\nFormat                         : AVC\r\nFormat/Info                    : Advanced Video Codec\r\nFormat profile                 :   \r\nFormat settings, CABAC         : Yes\r\nFormat settings, ReFrames      : 5 frames\r\nCodec ID                       : V_MPEG4/ISO/AVC\r\nDuration                       : 42mn 22s\r\nBit rate                       : 2 634 Kbps\r\nWidth                          : 1 280 pixels\r\nHeight                         : 720 pixels\r\nDisplay aspect ratio           : 16:9\r\nFrame rate mode                : Constant\r\nFrame rate                     : 50.000 fps\r\nColor space                    : YUV\r\nChroma subsampling             : 4:2:0\r\nBit depth                      : 8 bits\r\nScan type                      : Progressive\r\nBits/(Pixel*Frame)             : 0.057\r\nStream size                    : 798 MiB (84%)\r\nWriting library                : x264 core 148 r2705 3f5ed56\r\nLanguage                       : Danish\r\nDefault                        : Yes\r\nForced                         : No\r\n\r\nAudio\r\nID                             : 2\r\nFormat                         : AC-3\r\nFormat/Info                    : Audio Coding 3\r\nMode extension                 : CM (complete main)\r\nFormat settings, Endianness    : Big\r\nCodec ID                       : A_AC3\r\nDuration                       : 42mn 22s\r\nBit rate mode                  : Constant\r\nBit rate                       : 448 Kbps\r\nChannel(s)                     : 6 channels\r\nChannel positions              : Front: L C R, Side: L R, LFE\r\nSampling rate                  : 48.0 KHz\r\nCompression mode               : Lossy\r\nStream size                    : 136 MiB (14%)\r\nLanguage                       : Danish\r\nDefault                        : Yes\r\nForced                         : No","torrent":{"xt":"urn:btih:b0c5de1bf28703f980dda093c396738dce2f7f65","amp;dn":"Dicte.S03E02.DANISH.720p50.HDTV-z97","amp;tr":["udp%3A%2F%2Ftracker.leechers-paradise.org%3A6969","udp%3A%2F%2Fzer0day.ch%3A1337","udp%3A%2F%2Fopen.demonii.com%3A1337","udp%3A%2F%2Ftracker.coppersurfer.tk%3A6969","udp%3A%2F%2Fexodus.desync.com%3A6969"],"infoHash":"b0c5de1bf28703f980dda093c396738dce2f7f65","infoHashBuffer":{"type":"Buffer","data":[176,197,222,27,242,135,3,249,128,221,160,147,195,150,115,141,206,47,127,101]},"announce":[],"urlList":[]}}